<svg xmlns="http://www.w3.org/2000/svg" viewBox="0 0 512 492" fill="currentColor">
<path d="M388 367.3c-66.9-67-136.6-137-155-155.6l-33.5-33.9 85 62.8c52.4 38.8 86.6 63.3 89.1 64.2 3.2 1 5.1 1.1 8.1.3 6.4-1.7 8.9-4.4 12.1-12.9 13.7-36 11.6-78.6-5.8-113.3-12.9-25.5-38.6-50.6-64.3-62.8-18-8.5-33.4-12.1-54.2-12.8-18.1-.6-30.5 1-48.2 6.3l-12.2 3.6-28.6-13.3-28.6-13.2 6.8-4.5c9.4-6.2 30.8-16.4 42.9-20.6 64.1-22 132.7-9.1 185.1 34.8 39.1 32.6 63 79.4 67.3 131.7 1.6 18.9.1 36.3-5.5 62.9-7.6 36.6-8.1 63-1.5 88.5 6.7 25.7 19 48.3 49.8 91.3 7.2 10 13 18.2 12.9 18.2-.1 0-54.9-54.8-121.7-121.7z"/>
<path d="M253.5 434.3c-26-1.6-53.6-8.9-75.9-20-51-25.5-88.7-73.8-100.9-129.4-4.1-18.3-5-29.1-4.4-49.8.8-24.6 4.2-41.3 12.7-63.3 5.3-13.5 7-21.9 7-34.1 0-16.6-4.7-31-15.5-47.9-9-13.8-14.1-19.9-41-48.8-15.5-16.6-24.9-27.1-32.4-36.4-1.4-1.7-1.4-1.8-.1-1.1 1.5.9 149.5 132.9 155.9 139.1l3.4 3.3-5.7 6.2c-8.7 9.4-15.3 19.2-21.7 32.4-9.7 19.9-13.6 39.4-12.6 61.9 1.5 34.3 15 66.4 38.3 91.5 37.4 40.2 97.5 55.2 148.5 37.2l8.1-2.9 10.2 4.8c5.5 2.6 12.4 5.8 15.1 7 2.8 1.3 9.1 4.2 14 6 5 2.3 10.9 5 13.3 6 2.3 1 4.2 2.2 4.2 2.5 0 1.3-14.9 10.3-25.5 15.5-22.5 11-46.9 17.5-72.5 19.5-7.4.5-14.4.9-15.5.8-1.1-.1-4.2-.3-7-.5z"/>
</svg>
